<?xml version="1.0" encoding="us-ascii" standalone="no"?><svg xmlns="http://www.w3.org/2000/svg" xmlns:xlink="http://www.w3.org/1999/xlink" contentStyleType="text/css" height="503px" preserveAspectRatio="none" style="width:872px;height:503px;background:#FFFFFF;" version="1.1" viewBox="0 0 872 503" width="872px" zoomAndPan="magnify"><defs/><g><rect fill="#FFFFFF" height="321.1328" style="stroke:#181818;stroke-width:1.0;" width="10" x="53.5" y="91.2969"/><rect fill="#FFFFFF" height="300" style="stroke:#181818;stroke-width:1.0;" width="10" x="351.5" y="112.4297"/><rect fill="#FFFFFF" height="126.3359" style="stroke:#181818;stroke-width:1.0;" width="10" x="563.5" y="141.5625"/><rect fill="#FFFFFF" height="71.2656" style="stroke:#181818;stroke-width:1.0;" width="10" x="563.5" y="297.0313"/><rect fill="#FFC0CB" height="248.8672" style="stroke:#000000;stroke-width:1.5;" width="855.5" x="10" y="156.5625"/><rect fill="#90EE90" height="173.4688" style="stroke:none;stroke-width:1.0;" width="855.5" x="10" y="231.9609"/><line style="stroke:#181818;stroke-width:0.5;stroke-dasharray:5.0,5.0;" x1="58" x2="58" y1="81.2969" y2="422.4297"/><line style="stroke:#181818;stroke-width:0.5;stroke-dasharray:5.0,5.0;" x1="356" x2="356" y1="81.2969" y2="422.4297"/><line style="stroke:#181818;stroke-width:0.5;stroke-dasharray:5.0,5.0;" x1="568" x2="568" y1="81.2969" y2="422.4297"/><text fill="#000000" font-family="sans-serif" font-size="14" lengthAdjust="spacing" textLength="71" x="20" y="77.9951">Developer</text><ellipse cx="58.5" cy="13.5" fill="#E2E2F0" rx="8" ry="8" style="stroke:#181818;stroke-width:0.5;"/><path d="M58.5,21.5 L58.5,48.5 M45.5,29.5 L71.5,29.5 M58.5,48.5 L45.5,63.5 M58.5,48.5 L71.5,63.5 " fill="none" style="stroke:#181818;stroke-width:0.5;"/><text fill="#000000" font-family="sans-serif" font-size="14" lengthAdjust="spacing" textLength="71" x="20" y="434.4248">Developer</text><ellipse cx="58.5" cy="446.2266" fill="#E2E2F0" rx="8" ry="8" style="stroke:#181818;stroke-width:0.5;"/><path d="M58.5,454.2266 L58.5,481.2266 M45.5,462.2266 L71.5,462.2266 M58.5,481.2266 L45.5,496.2266 M58.5,481.2266 L71.5,496.2266 " fill="none" style="stroke:#181818;stroke-width:0.5;"/><rect fill="#E2E2F0" height="30.2969" rx="2.5" ry="2.5" style="stroke:#181818;stroke-width:0.5;" width="177" x="268" y="50"/><text fill="#000000" font-family="sans-serif" font-size="14" lengthAdjust="spacing" textLength="163" x="275" y="69.9951">PlantUmlEditorFrontend</text><rect fill="#E2E2F0" height="30.2969" rx="2.5" ry="2.5" style="stroke:#181818;stroke-width:0.5;" width="177" x="268" y="421.4297"/><text fill="#000000" font-family="sans-serif" font-size="14" lengthAdjust="spacing" textLength="163" x="275" y="441.4248">PlantUmlEditorFrontend</text><rect fill="#E2E2F0" height="30.2969" rx="2.5" ry="2.5" style="stroke:#181818;stroke-width:0.5;" width="175" x="481" y="50"/><text fill="#000000" font-family="sans-serif" font-size="14" lengthAdjust="spacing" textLength="161" x="488" y="69.9951">PlantUmlEditorBackend</text><rect fill="#E2E2F0" height="30.2969" rx="2.5" ry="2.5" style="stroke:#181818;stroke-width:0.5;" width="175" x="481" y="421.4297"/><text fill="#000000" font-family="sans-serif" font-size="14" lengthAdjust="spacing" textLength="161" x="488" y="441.4248">PlantUmlEditorBackend</text><rect fill="#FFFFFF" height="321.1328" style="stroke:#181818;stroke-width:1.0;" width="10" x="53.5" y="91.2969"/><rect fill="#FFFFFF" height="300" style="stroke:#181818;stroke-width:1.0;" width="10" x="351.5" y="112.4297"/><rect fill="#FFFFFF" height="126.3359" style="stroke:#181818;stroke-width:1.0;" width="10" x="563.5" y="141.5625"/><rect fill="#FFFFFF" height="71.2656" style="stroke:#181818;stroke-width:1.0;" width="10" x="563.5" y="297.0313"/><polygon fill="#181818" points="339.5,108.4297,349.5,112.4297,339.5,116.4297,343.5,112.4297" style="stroke:#181818;stroke-width:1.0;"/><line style="stroke:#181818;stroke-width:1.0;" x1="63.5" x2="345.5" y1="112.4297" y2="112.4297"/><text fill="#000000" font-family="sans-serif" font-size="13" font-weight="bold" lengthAdjust="spacing" textLength="9" x="70.5" y="107.3638">1</text><text fill="#000000" font-family="sans-serif" font-size="13" lengthAdjust="spacing" textLength="135" x="83.5" y="107.3638">type plantuml source</text><polygon fill="#181818" points="551.5,137.5625,561.5,141.5625,551.5,145.5625,555.5,141.5625" style="stroke:#181818;stroke-width:1.0;"/><line style="stroke:#181818;stroke-width:1.0;" x1="361.5" x2="557.5" y1="141.5625" y2="141.5625"/><text fill="#000000" font-family="sans-serif" font-size="13" font-weight="bold" lengthAdjust="spacing" textLength="9" x="368.5" y="136.4966">2</text><text fill="#000000" font-family="sans-serif" font-size="13" lengthAdjust="spacing" textLength="101" x="381.5" y="136.4966">get annotations</text><path d="M10,156.5625 L74,156.5625 L74,163.6953 L64,173.6953 L10,173.6953 L10,156.5625 " fill="#EEEEEE" style="stroke:#000000;stroke-width:1.5;"/><rect fill="none" height="248.8672" style="stroke:#000000;stroke-width:1.5;" width="855.5" x="10" y="156.5625"/><text fill="#000000" font-family="sans-serif" font-size="13" font-weight="bold" lengthAdjust="spacing" textLength="19" x="25" y="169.6294">alt</text><text fill="#000000" font-family="sans-serif" font-size="11" font-weight="bold" lengthAdjust="spacing" textLength="100" x="89" y="168.7729">[source invalid]</text><polygon fill="#181818" points="372.5,190.8281,362.5,194.8281,372.5,198.8281,368.5,194.8281" style="stroke:#181818;stroke-width:1.0;"/><line style="stroke:#181818;stroke-width:1.0;stroke-dasharray:2.0,2.0;" x1="366.5" x2="562.5" y1="194.8281" y2="194.8281"/><text fill="#000000" font-family="sans-serif" font-size="13" font-weight="bold" lengthAdjust="spacing" textLength="9" x="378.5" y="189.7622">3</text><text fill="#000000" font-family="sans-serif" font-size="13" lengthAdjust="spacing" textLength="111" x="391.5" y="189.7622">error annotations</text><polygon fill="#181818" points="74.5,219.9609,64.5,223.9609,74.5,227.9609,70.5,223.9609" style="stroke:#181818;stroke-width:1.0;"/><line style="stroke:#181818;stroke-width:1.0;stroke-dasharray:2.0,2.0;" x1="68.5" x2="350.5" y1="223.9609" y2="223.9609"/><text fill="#000000" font-family="sans-serif" font-size="13" font-weight="bold" lengthAdjust="spacing" textLength="9" x="80.5" y="218.895">4</text><text fill="#000000" font-family="sans-serif" font-size="13" lengthAdjust="spacing" textLength="251" x="93.5" y="218.895">marked error annotation at specific line</text><line style="stroke:#000000;stroke-width:1.0;stroke-dasharray:2.0,2.0;" x1="10" x2="865.5" y1="232.9609" y2="232.9609"/><text fill="#000000" font-family="sans-serif" font-size="11" font-weight="bold" lengthAdjust="spacing" textLength="88" x="15" y="243.1714">[source valid]</text><polygon fill="#181818" points="372.5,263.8984,362.5,267.8984,372.5,271.8984,368.5,267.8984" style="stroke:#181818;stroke-width:1.0;"/><line style="stroke:#181818;stroke-width:1.0;stroke-dasharray:2.0,2.0;" x1="366.5" x2="567.5" y1="267.8984" y2="267.8984"/><text fill="#000000" font-family="sans-serif" font-size="13" font-weight="bold" lengthAdjust="spacing" textLength="9" x="378.5" y="262.8325">5</text><text fill="#000000" font-family="sans-serif" font-size="13" lengthAdjust="spacing" textLength="121" x="391.5" y="262.8325">empty annotations</text><polygon fill="#181818" points="551.5,293.0313,561.5,297.0313,551.5,301.0313,555.5,297.0313" style="stroke:#181818;stroke-width:1.0;"/><line style="stroke:#181818;stroke-width:1.0;" x1="361.5" x2="557.5" y1="297.0313" y2="297.0313"/><text fill="#000000" font-family="sans-serif" font-size="13" font-weight="bold" lengthAdjust="spacing" textLength="9" x="368.5" y="291.9653">6</text><text fill="#000000" font-family="sans-serif" font-size="13" lengthAdjust="spacing" textLength="170" x="381.5" y="291.9653">generate image for source</text><line style="stroke:#181818;stroke-width:1.0;" x1="573.5" x2="615.5" y1="326.1641" y2="326.1641"/><line style="stroke:#181818;stroke-width:1.0;" x1="615.5" x2="615.5" y1="326.1641" y2="339.1641"/><line style="stroke:#181818;stroke-width:1.0;" x1="574.5" x2="615.5" y1="339.1641" y2="339.1641"/><polygon fill="#181818" points="584.5,335.1641,574.5,339.1641,584.5,343.1641,580.5,339.1641" style="stroke:#181818;stroke-width:1.0;"/><text fill="#000000" font-family="sans-serif" font-size="13" font-weight="bold" lengthAdjust="spacing" textLength="9" x="580.5" y="321.0981">7</text><text fill="#000000" font-family="sans-serif" font-size="13" lengthAdjust="spacing" textLength="260" x="593.5" y="321.0981">generate image using plantuml/plantuml</text><polygon fill="#181818" points="372.5,364.2969,362.5,368.2969,372.5,372.2969,368.5,368.2969" style="stroke:#181818;stroke-width:1.0;"/><line style="stroke:#181818;stroke-width:1.0;stroke-dasharray:2.0,2.0;" x1="366.5" x2="567.5" y1="368.2969" y2="368.2969"/><text fill="#000000" font-family="sans-serif" font-size="13" font-weight="bold" lengthAdjust="spacing" textLength="9" x="378.5" y="363.231">8</text><text fill="#000000" font-family="sans-serif" font-size="13" lengthAdjust="spacing" textLength="110" x="391.5" y="363.231">generated image</text><polygon fill="#181818" points="74.5,393.4297,64.5,397.4297,74.5,401.4297,70.5,397.4297" style="stroke:#181818;stroke-width:1.0;"/><line style="stroke:#181818;stroke-width:1.0;stroke-dasharray:2.0,2.0;" x1="68.5" x2="350.5" y1="397.4297" y2="397.4297"/><text fill="#000000" font-family="sans-serif" font-size="13" font-weight="bold" lengthAdjust="spacing" textLength="9" x="80.5" y="392.3638">9</text><text fill="#000000" font-family="sans-serif" font-size="13" lengthAdjust="spacing" textLength="176" x="93.5" y="392.3638">visualized generated image</text><!--SRC=[fPFBJiGm34Nt_GfBinwnxu850jPi-82GU8hLn8aIfzBmzQJG5tHQ7jD55QNkkVSwZihYERiNZ5MbjFW8zzYXzQ5i11M5D0N50a-sl9-TVJ1KYXwZPq4sEoLtIhTzHK-bJWakmDCAZhSRv1ha7112_p4x2yddg751sp1qUNkjCzYheK41nUn52NbEcmfp7Yjm2CJju0c8EsN9L52UY__0SIScnbYQldImvimn2cXgNWrEnHRD2W5A80NKT28DbXWhj0dXOAbvbIOYycZzAkCko7bbtE0F_TjBjtD8ZB5dabCDmgd47GQYn_rPSOhtMy6SY9jf66_6nJyxDyBD9_twldsTYevIBkVwLlZVbJu6U5DgkaIBYldIlWC0]--></g></svg>