<?xml version="1.0" encoding="UTF-8" standalone="no"?><svg xmlns="http://www.w3.org/2000/svg" xmlns:xlink="http://www.w3.org/1999/xlink" contentScriptType="application/ecmascript" contentStyleType="text/css" height="513px" preserveAspectRatio="none" style="width:879px;height:513px;background:#FFFFFF;" version="1.1" viewBox="0 0 879 513" width="879px" zoomAndPan="magnify"><defs><filter height="300%" id="fw1o8zzd4xtyg" width="300%" x="-1" y="-1"><feGaussianBlur result="blurOut" stdDeviation="2.0"/><feColorMatrix in="blurOut" result="blurOut2" type="matrix" values="0 0 0 0 0 0 0 0 0 0 0 0 0 0 0 0 0 0 .4 0"/><feOffset dx="4.0" dy="4.0" in="blurOut2" result="blurOut3"/><feBlend in="SourceGraphic" in2="blurOut3" mode="normal"/></filter></defs><g><rect fill="#FFFFFF" filter="url(#fw1o8zzd4xtyg)" height="321.1328" style="stroke:#A80036;stroke-width:1.0;" width="10" x="53.5" y="98.2969"/><rect fill="#FFFFFF" filter="url(#fw1o8zzd4xtyg)" height="300" style="stroke:#A80036;stroke-width:1.0;" width="10" x="351.5" y="119.4297"/><rect fill="#FFFFFF" filter="url(#fw1o8zzd4xtyg)" height="126.3359" style="stroke:#A80036;stroke-width:1.0;" width="10" x="563.5" y="148.5625"/><rect fill="#FFFFFF" filter="url(#fw1o8zzd4xtyg)" height="71.2656" style="stroke:#A80036;stroke-width:1.0;" width="10" x="563.5" y="304.0313"/><rect fill="#FFC0CB" filter="url(#fw1o8zzd4xtyg)" height="248.8672" style="stroke:#000000;stroke-width:2.0;" width="855.5" x="10" y="163.5625"/><rect fill="#90EE90" height="173.4688" style="stroke:none;stroke-width:1.0;" width="855.5" x="10" y="238.9609"/><line style="stroke:#A80036;stroke-width:1.0;stroke-dasharray:5.0,5.0;" x1="58" x2="58" y1="88.2969" y2="429.4297"/><line style="stroke:#A80036;stroke-width:1.0;stroke-dasharray:5.0,5.0;" x1="356" x2="356" y1="88.2969" y2="429.4297"/><line style="stroke:#A80036;stroke-width:1.0;stroke-dasharray:5.0,5.0;" x1="568" x2="568" y1="88.2969" y2="429.4297"/><text fill="#000000" font-family="sans-serif" font-size="14" lengthAdjust="spacing" textLength="71" x="20" y="84.9951">Developer</text><ellipse cx="58.5" cy="15" fill="#FEFECE" filter="url(#fw1o8zzd4xtyg)" rx="8" ry="8" style="stroke:#A80036;stroke-width:2.0;"/><path d="M58.5,23 L58.5,50 M45.5,31 L71.5,31 M58.5,50 L45.5,65 M58.5,50 L71.5,65 " fill="none" filter="url(#fw1o8zzd4xtyg)" style="stroke:#A80036;stroke-width:2.0;"/><text fill="#000000" font-family="sans-serif" font-size="14" lengthAdjust="spacing" textLength="71" x="20" y="441.4248">Developer</text><ellipse cx="58.5" cy="454.7266" fill="#FEFECE" filter="url(#fw1o8zzd4xtyg)" rx="8" ry="8" style="stroke:#A80036;stroke-width:2.0;"/><path d="M58.5,462.7266 L58.5,489.7266 M45.5,470.7266 L71.5,470.7266 M58.5,489.7266 L45.5,504.7266 M58.5,489.7266 L71.5,504.7266 " fill="none" filter="url(#fw1o8zzd4xtyg)" style="stroke:#A80036;stroke-width:2.0;"/><rect fill="#FEFECE" filter="url(#fw1o8zzd4xtyg)" height="30.2969" style="stroke:#A80036;stroke-width:1.5;" width="177" x="266" y="53"/><text fill="#000000" font-family="sans-serif" font-size="14" lengthAdjust="spacing" textLength="163" x="273" y="72.9951">PlantUmlEditorFrontend</text><rect fill="#FEFECE" filter="url(#fw1o8zzd4xtyg)" height="30.2969" style="stroke:#A80036;stroke-width:1.5;" width="177" x="266" y="428.4297"/><text fill="#000000" font-family="sans-serif" font-size="14" lengthAdjust="spacing" textLength="163" x="273" y="448.4248">PlantUmlEditorFrontend</text><rect fill="#FEFECE" filter="url(#fw1o8zzd4xtyg)" height="30.2969" style="stroke:#A80036;stroke-width:1.5;" width="175" x="479" y="53"/><text fill="#000000" font-family="sans-serif" font-size="14" lengthAdjust="spacing" textLength="161" x="486" y="72.9951">PlantUmlEditorBackend</text><rect fill="#FEFECE" filter="url(#fw1o8zzd4xtyg)" height="30.2969" style="stroke:#A80036;stroke-width:1.5;" width="175" x="479" y="428.4297"/><text fill="#000000" font-family="sans-serif" font-size="14" lengthAdjust="spacing" textLength="161" x="486" y="448.4248">PlantUmlEditorBackend</text><rect fill="#FFFFFF" filter="url(#fw1o8zzd4xtyg)" height="321.1328" style="stroke:#A80036;stroke-width:1.0;" width="10" x="53.5" y="98.2969"/><rect fill="#FFFFFF" filter="url(#fw1o8zzd4xtyg)" height="300" style="stroke:#A80036;stroke-width:1.0;" width="10" x="351.5" y="119.4297"/><rect fill="#FFFFFF" filter="url(#fw1o8zzd4xtyg)" height="126.3359" style="stroke:#A80036;stroke-width:1.0;" width="10" x="563.5" y="148.5625"/><rect fill="#FFFFFF" filter="url(#fw1o8zzd4xtyg)" height="71.2656" style="stroke:#A80036;stroke-width:1.0;" width="10" x="563.5" y="304.0313"/><polygon fill="#A80036" points="339.5,115.4297,349.5,119.4297,339.5,123.4297,343.5,119.4297" style="stroke:#A80036;stroke-width:1.0;"/><line style="stroke:#A80036;stroke-width:1.0;" x1="63.5" x2="345.5" y1="119.4297" y2="119.4297"/><text fill="#000000" font-family="sans-serif" font-size="13" font-weight="bold" lengthAdjust="spacing" textLength="9" x="70.5" y="114.3638">1</text><text fill="#000000" font-family="sans-serif" font-size="13" lengthAdjust="spacing" textLength="135" x="83.5" y="114.3638">type plantuml source</text><polygon fill="#A80036" points="551.5,144.5625,561.5,148.5625,551.5,152.5625,555.5,148.5625" style="stroke:#A80036;stroke-width:1.0;"/><line style="stroke:#A80036;stroke-width:1.0;" x1="361.5" x2="557.5" y1="148.5625" y2="148.5625"/><text fill="#000000" font-family="sans-serif" font-size="13" font-weight="bold" lengthAdjust="spacing" textLength="9" x="368.5" y="143.4966">2</text><text fill="#000000" font-family="sans-serif" font-size="13" lengthAdjust="spacing" textLength="101" x="381.5" y="143.4966">get annotations</text><path d="M10,163.5625 L74,163.5625 L74,170.5625 L64,180.5625 L10,180.5625 L10,163.5625 " fill="#EEEEEE" style="stroke:#000000;stroke-width:1.0;"/><rect fill="none" height="248.8672" style="stroke:#000000;stroke-width:2.0;" width="855.5" x="10" y="163.5625"/><text fill="#000000" font-family="sans-serif" font-size="13" font-weight="bold" lengthAdjust="spacing" textLength="19" x="25" y="176.6294">alt</text><text fill="#000000" font-family="sans-serif" font-size="11" font-weight="bold" lengthAdjust="spacing" textLength="100" x="89" y="175.7729">[source invalid]</text><polygon fill="#A80036" points="372.5,197.8281,362.5,201.8281,372.5,205.8281,368.5,201.8281" style="stroke:#A80036;stroke-width:1.0;"/><line style="stroke:#A80036;stroke-width:1.0;stroke-dasharray:2.0,2.0;" x1="366.5" x2="562.5" y1="201.8281" y2="201.8281"/><text fill="#000000" font-family="sans-serif" font-size="13" font-weight="bold" lengthAdjust="spacing" textLength="9" x="378.5" y="196.7622">3</text><text fill="#000000" font-family="sans-serif" font-size="13" lengthAdjust="spacing" textLength="111" x="391.5" y="196.7622">error annotations</text><polygon fill="#A80036" points="74.5,226.9609,64.5,230.9609,74.5,234.9609,70.5,230.9609" style="stroke:#A80036;stroke-width:1.0;"/><line style="stroke:#A80036;stroke-width:1.0;stroke-dasharray:2.0,2.0;" x1="68.5" x2="350.5" y1="230.9609" y2="230.9609"/><text fill="#000000" font-family="sans-serif" font-size="13" font-weight="bold" lengthAdjust="spacing" textLength="9" x="80.5" y="225.895">4</text><text fill="#000000" font-family="sans-serif" font-size="13" lengthAdjust="spacing" textLength="251" x="93.5" y="225.895">marked error annotation at specific line</text><line style="stroke:#000000;stroke-width:1.0;stroke-dasharray:2.0,2.0;" x1="10" x2="865.5" y1="239.9609" y2="239.9609"/><text fill="#000000" font-family="sans-serif" font-size="11" font-weight="bold" lengthAdjust="spacing" textLength="88" x="15" y="250.1714">[source valid]</text><polygon fill="#A80036" points="372.5,270.8984,362.5,274.8984,372.5,278.8984,368.5,274.8984" style="stroke:#A80036;stroke-width:1.0;"/><line style="stroke:#A80036;stroke-width:1.0;stroke-dasharray:2.0,2.0;" x1="366.5" x2="567.5" y1="274.8984" y2="274.8984"/><text fill="#000000" font-family="sans-serif" font-size="13" font-weight="bold" lengthAdjust="spacing" textLength="9" x="378.5" y="269.8325">5</text><text fill="#000000" font-family="sans-serif" font-size="13" lengthAdjust="spacing" textLength="121" x="391.5" y="269.8325">empty annotations</text><polygon fill="#A80036" points="551.5,300.0313,561.5,304.0313,551.5,308.0313,555.5,304.0313" style="stroke:#A80036;stroke-width:1.0;"/><line style="stroke:#A80036;stroke-width:1.0;" x1="361.5" x2="557.5" y1="304.0313" y2="304.0313"/><text fill="#000000" font-family="sans-serif" font-size="13" font-weight="bold" lengthAdjust="spacing" textLength="9" x="368.5" y="298.9653">6</text><text fill="#000000" font-family="sans-serif" font-size="13" lengthAdjust="spacing" textLength="170" x="381.5" y="298.9653">generate image for source</text><line style="stroke:#A80036;stroke-width:1.0;" x1="573.5" x2="615.5" y1="333.1641" y2="333.1641"/><line style="stroke:#A80036;stroke-width:1.0;" x1="615.5" x2="615.5" y1="333.1641" y2="346.1641"/><line style="stroke:#A80036;stroke-width:1.0;" x1="574.5" x2="615.5" y1="346.1641" y2="346.1641"/><polygon fill="#A80036" points="584.5,342.1641,574.5,346.1641,584.5,350.1641,580.5,346.1641" style="stroke:#A80036;stroke-width:1.0;"/><text fill="#000000" font-family="sans-serif" font-size="13" font-weight="bold" lengthAdjust="spacing" textLength="9" x="580.5" y="328.0981">7</text><text fill="#000000" font-family="sans-serif" font-size="13" lengthAdjust="spacing" textLength="260" x="593.5" y="328.0981">generate image using plantuml/plantuml</text><polygon fill="#A80036" points="372.5,371.2969,362.5,375.2969,372.5,379.2969,368.5,375.2969" style="stroke:#A80036;stroke-width:1.0;"/><line style="stroke:#A80036;stroke-width:1.0;stroke-dasharray:2.0,2.0;" x1="366.5" x2="567.5" y1="375.2969" y2="375.2969"/><text fill="#000000" font-family="sans-serif" font-size="13" font-weight="bold" lengthAdjust="spacing" textLength="9" x="378.5" y="370.231">8</text><text fill="#000000" font-family="sans-serif" font-size="13" lengthAdjust="spacing" textLength="110" x="391.5" y="370.231">generated image</text><polygon fill="#A80036" points="74.5,400.4297,64.5,404.4297,74.5,408.4297,70.5,404.4297" style="stroke:#A80036;stroke-width:1.0;"/><line style="stroke:#A80036;stroke-width:1.0;stroke-dasharray:2.0,2.0;" x1="68.5" x2="350.5" y1="404.4297" y2="404.4297"/><text fill="#000000" font-family="sans-serif" font-size="13" font-weight="bold" lengthAdjust="spacing" textLength="9" x="80.5" y="399.3638">9</text><text fill="#000000" font-family="sans-serif" font-size="13" lengthAdjust="spacing" textLength="176" x="93.5" y="399.3638">visualized generated image</text><!--MD5=[3ac23e136190953b81b2be05941a4b74]
@startuml

autonumber

actor Developer
participant PlantUmlEditorFrontend
participant PlantUmlEditorBackend

activate Developer
Developer -> PlantUmlEditorFrontend: type plantuml source

activate PlantUmlEditorFrontend
PlantUmlEditorFrontend -> PlantUmlEditorBackend: get annotations

activate PlantUmlEditorBackend

alt #pink source invalid
    PlantUmlEditorBackend - -> PlantUmlEditorFrontend: error annotations
    PlantUmlEditorFrontend - -> Developer: marked error annotation at specific line
else #lightgreen source valid
    PlantUmlEditorBackend - -> PlantUmlEditorFrontend: empty annotations
    deactivate PlantUmlEditorBackend
    PlantUmlEditorFrontend -> PlantUmlEditorBackend: generate image for source
    activate PlantUmlEditorBackend
    PlantUmlEditorBackend -> PlantUmlEditorBackend: generate image using plantuml/plantuml
    PlantUmlEditorBackend - -> PlantUmlEditorFrontend: generated image
    deactivate PlantUmlEditorBackend
    PlantUmlEditorFrontend - -> Developer: visualized generated image
end

deactivate PlantUmlEditorFrontend
deactivate Developer

@enduml

PlantUML version 1.2021.9(Sun Jul 25 10:13:56 GMT 2021)
(GPL source distribution)
Java Runtime: OpenJDK Runtime Environment
JVM: OpenJDK 64-Bit Server VM
Default Encoding: UTF-8
Language: en
Country: US
--></g></svg>