<?xml version="1.0" encoding="us-ascii" standalone="no"?><svg xmlns="http://www.w3.org/2000/svg" xmlns:xlink="http://www.w3.org/1999/xlink" contentStyleType="text/css" height="222px" preserveAspectRatio="none" style="width:306px;height:222px;background:#FFFFFF;" version="1.1" viewBox="0 0 306 222" width="306px" zoomAndPan="magnify"><defs/><g><!--cluster Home--><g id="cluster_Home"><path d="M191.5,6 L237.5,6 A3.75,3.75 0 0 1 240,8.5 L247,28.2969 L296.5,28.2969 A2.5,2.5 0 0 1 299,30.7969 L299,212.5 A2.5,2.5 0 0 1 296.5,215 L191.5,215 A2.5,2.5 0 0 1 189,212.5 L189,8.5 A2.5,2.5 0 0 1 191.5,6 " fill="none" style="stroke:#000000;stroke-width:1.5;"/><line style="stroke:#000000;stroke-width:1.5;" x1="189" x2="247" y1="28.2969" y2="28.2969"/><text fill="#000000" font-family="sans-serif" font-size="14" font-weight="bold" lengthAdjust="spacing" textLength="45" x="193" y="20.9951">Home</text></g><g id="elem_Eat"><ellipse cx="244.0416" cy="56.0236" fill="#F1F1F1" rx="27.0416" ry="14.5236" style="stroke:#181818;stroke-width:0.5;"/><text fill="#000000" font-family="sans-serif" font-size="14" lengthAdjust="spacing" textLength="22" x="233.0416" y="58.8703">Eat</text></g><g id="elem_Sleep"><ellipse cx="244.1869" cy="120.0634" fill="#F1F1F1" rx="39.1869" ry="14.5634" style="stroke:#181818;stroke-width:0.5;"/><text fill="#000000" font-family="sans-serif" font-size="14" lengthAdjust="spacing" textLength="39" x="222.5666" y="123.5876">Sleep</text></g><g id="elem_Drink"><ellipse cx="243.9961" cy="184.0423" fill="#F1F1F1" rx="36.9961" ry="14.5423" style="stroke:#181818;stroke-width:0.5;"/><text fill="#000000" font-family="sans-serif" font-size="14" lengthAdjust="spacing" textLength="36" x="224.6301" y="187.3527">Drink</text></g><!--entity dev--><g id="elem_dev"><ellipse cx="75.5" cy="58.5" fill="#F1F1F1" rx="8" ry="8" style="stroke:#181818;stroke-width:0.5;"/><path d="M75.5,66.5 L75.5,93.5 M62.5,74.5 L88.5,74.5 M75.5,93.5 L62.5,108.5 M75.5,93.5 L88.5,108.5 " fill="none" style="stroke:#181818;stroke-width:0.5;"/><text fill="#000000" font-family="sans-serif" font-size="14" lengthAdjust="spacing" textLength="71" x="40" y="122.9951">Developer</text></g><g id="elem_GMN3"><path d="M6,161.5 L6,186.6328 A0,0 0 0 0 6,186.6328 L145,186.6328 A0,0 0 0 0 145,186.6328 L145,171.5 L135,161.5 L79.5,161.5 L75.5,126.05 L71.5,161.5 L6,161.5 A0,0 0 0 0 6,161.5 " fill="#FEFFDD" style="stroke:#181818;stroke-width:0.5;"/><path d="M135,161.5 L135,171.5 L145,171.5 L135,161.5 " fill="#FEFFDD" style="stroke:#181818;stroke-width:0.5;"/><text fill="#000000" font-family="sans-serif" font-size="13" lengthAdjust="spacing" textLength="118" x="12" y="178.5669">just to name a few</text></g><!--link dev to Eat--><g id="link_dev_Eat"><path d="M111.4,81.29 C141.57,75.49 184.69,67.21 213.24,61.72 " fill="none" id="dev-to-Eat" style="stroke:#181818;stroke-width:1.0;"/><polygon fill="#181818" points="218.4,60.73,208.8075,58.4975,213.4896,61.6721,210.3149,66.3542,218.4,60.73" style="stroke:#181818;stroke-width:1.0;"/></g><!--link dev to Sleep--><g id="link_dev_Sleep"><path d="M111.4,94.71 C138.42,99.9 175.84,107.09 203.88,112.48 " fill="none" id="dev-to-Sleep" style="stroke:#181818;stroke-width:1.0;"/><polygon fill="#181818" points="209,113.46,200.9149,107.8358,204.0896,112.5179,199.4075,115.6925,209,113.46" style="stroke:#181818;stroke-width:1.0;"/></g><!--SRC=[JOr13e9040Jlyuh-01_mu0aJxxvWN1fSMNR8xe07uzyb61DkNPtgT6BlS4E9myFHnSBWqRA81hU2bYkJpIpGYewhI3OdxkPkqmdFfUxhh1EXwFaIcJMCEX1Nsxgt04jbq4fSr0zqI-HyuBR4FCf7P7j1qvnt_Pz_yXS0]--></g></svg>