<?xml version="1.0" encoding="utf-8"?>
<!-- Generator: Adobe Illustrator 16.0.0, SVG Export Plug-In . SVG Version: 6.00 Build 0)  -->
<!DOCTYPE svg PUBLIC "-//W3C//DTD SVG 1.1//EN" "http://www.w3.org/Graphics/SVG/1.1/DTD/svg11.dtd">
<svg version="1.1" id="Ebene_1" xmlns="http://www.w3.org/2000/svg" xmlns:xlink="http://www.w3.org/1999/xlink" x="0px" y="0px"
	 width="2560px" height="2560px" viewBox="0 0 2560 2560" enable-background="new 0 0 2560 2560" xml:space="preserve">
<g>
	
		<path fill="#FFFFFF" stroke-width="30" stroke-linecap="round" stroke-linejoin="round" stroke-miterlimit="10" d="
		M239,1039.811c0-96.813,36.087-175.889,94.894-237.266c58.787-61.357,141.77-92.045,235.542-92.045
		c111.255,0,196.381,50.938,256.247,152.794c36.516-54.882,74.83-94.066,116.664-117.553
		c41.813-23.487,91.718-35.241,153.134-35.241c97.402,0,168.623,30.688,220.502,92.065S1387,952.278,1387,1067.615v461.654
		c25,0.001,207.812,0.232,229.97,0.232c28.137,0,58.426-7.839,77.282-24.007s28.295-35.984,28.295-60.374
		c0-15.894-15.168-49.698-45.464-103.226c-48.387-84.786-72.581-167.759-72.581-252.563c0-102.269,36.379-186.745,109.176-260.679
		C1786.474,754.717,1873.418,725,1974.548,725c25.568,0,217.644,0,376.272,0C2149.896,338.266,1745.683,74.083,1279.75,74.083
		C613.557,74.083,73.5,614.14,73.5,1280.334c0,222.628,60.324,431.162,165.5,610.17V1039.811z"/>
	
		<path fill="#FFFFFF" stroke-width="30" stroke-linecap="round" stroke-linejoin="round" stroke-miterlimit="10" d="
		M2044.65,1030.726c-24.408,0-41.929,9.233-59.431,27.226c-17.503,18.013-22.817,39.941-22.817,65.351
		c0,21.702,9.575,49.684,28.746,83.041l24.742,43.799c44.698,77.31,67.067,153.763,67.067,225.755
		c0,105.368-37.497,198.193-112.472,271.265S1803.977,1864,1695.9,1864c-48.522,0-266.791,0-295.297,0h-3.083h-301.854
		c-26.583,0-31.667-8.166-31.667-31.001V1116.12c0.5-56.62-9.081-85.305-42.581-85.305c-31.571,0-46.419,26.518-46.419,79.732V1833
		c0,22.5-6,31-30,31H681c-20.5,0-29-7.375-29-31.001c0-2.676,0-716.879,0-716.879c0-64.12-6.457-85.312-41.508-85.312
		c-31.728,0-48.492,28.39-48.492,85.312v1133.755c200.567,148.726,448.88,236.709,717.75,236.709
		c666.193,0,1206.25-540.058,1206.25-1206.25c0-85.406-8.897-168.731-25.777-249.118
		C2310.056,1031.034,2053.623,1030.726,2044.65,1030.726z"/>
</g>
<circle fill="#CC5555" stroke-width="30" stroke-miterlimit="10" cx="4064.75" cy="1183.334" r="1206.25"/>
<path d="M4797.65,933.727c12.715,0,529.35,0.618,529.35,0.618V614c0,0-561.989,0-606.452,0c-101.13,0-188.074,36.717-260.87,110.652
	c-72.797,73.934-109.176,161.91-109.176,264.179c0,84.805,24.194,169.528,72.581,254.313
	c30.296,53.527,45.464,88.207,45.464,104.101c0,24.39-9.438,44.644-28.295,60.812s-42.146,24.226-70.282,24.226
	c-22.158,0-197.97-0.013-222.97-0.014V970.615c0-115.337-26.138-203.674-78.018-265.051c-51.88-61.376-126.6-92.064-224.002-92.064
	c-61.416,0-113.071,11.754-154.885,35.24c-41.834,23.487-81.023,62.672-117.539,117.554
	c-59.865-101.856-145.43-152.794-256.684-152.794c-93.772,0-169.975,30.688-228.761,92.045
	C3028.307,766.922,2999,845.998,2999,942.811V2330h323V1019.119c0-56.922,15.63-85.393,47.357-85.393
	c16.914,0,28.199,5.748,34.007,17.247c5.809,11.498,8.636,34.2,8.636,68.146V1725h323v-711.453c0-53.214,15.629-79.82,47.199-79.82
	c16.836,0,27.994,5.631,33.527,16.854c5.514,11.224,8.273,34.083,8.273,68.538V1753h319.521h3.083c28.506,0,246.774,0,295.297,0
	c108.076,0,199.611-36.766,274.586-109.837s112.472-162.396,112.472-267.765c0-71.992-22.369-146.695-67.067-224.006l-24.742-42.924
	c-19.171-33.357-28.746-60.901-28.746-82.604c0-25.41,8.814-47.119,26.316-65.132C4752.222,942.74,4773.242,933.727,4797.65,933.727
	z"/>
</svg>
