<?xml version="1.0" encoding="us-ascii" standalone="no"?><svg xmlns="http://www.w3.org/2000/svg" xmlns:xlink="http://www.w3.org/1999/xlink" contentStyleType="text/css" height="212px" preserveAspectRatio="none" style="width:418px;height:212px;background:#FFFFFF;" version="1.1" viewBox="0 0 418 212" width="418px" zoomAndPan="magnify"><defs/><g><g id="elem_john"><rect fill="#F1F1F1" height="60.8906" style="stroke:#181818;stroke-width:0.5;" width="144" x="136.5" y="7"/><text fill="#000000" font-family="sans-serif" font-size="14" lengthAdjust="spacing" textLength="63" x="177" y="21.9951">John Doe</text><line style="stroke:#181818;stroke-width:0.5;" x1="137.5" x2="279.5" y1="27.2969" y2="27.2969"/><text fill="#000000" font-family="sans-serif" font-size="14" lengthAdjust="spacing" textLength="132" x="142.5" y="44.292">name = "John Doe"</text><text fill="#000000" font-family="sans-serif" font-size="14" lengthAdjust="spacing" textLength="64" x="142.5" y="60.5889">age = 30</text></g><g id="elem_jane"><rect fill="#F1F1F1" height="60.8906" style="stroke:#181818;stroke-width:0.5;" width="153" x="7" y="145"/><text fill="#000000" font-family="sans-serif" font-size="14" lengthAdjust="spacing" textLength="72" x="47.5" y="159.9951">Jane Smith</text><line style="stroke:#181818;stroke-width:0.5;" x1="8" x2="159" y1="165.2969" y2="165.2969"/><text fill="#000000" font-family="sans-serif" font-size="14" lengthAdjust="spacing" textLength="141" x="13" y="182.292">name = "Jane Smith"</text><text fill="#000000" font-family="sans-serif" font-size="14" lengthAdjust="spacing" textLength="64" x="13" y="198.5889">age = 25</text></g><g id="elem_peter"><rect fill="#F1F1F1" height="60.8906" style="stroke:#181818;stroke-width:0.5;" width="151" x="260" y="145"/><text fill="#000000" font-family="sans-serif" font-size="14" lengthAdjust="spacing" textLength="70" x="300.5" y="159.9951">Peter Doe</text><line style="stroke:#181818;stroke-width:0.5;" x1="261" x2="410" y1="165.2969" y2="165.2969"/><text fill="#000000" font-family="sans-serif" font-size="14" lengthAdjust="spacing" textLength="139" x="266" y="182.292">name = "Peter Doe"</text><text fill="#000000" font-family="sans-serif" font-size="14" lengthAdjust="spacing" textLength="55" x="266" y="198.5889">age = 1</text></g><!--link john to jane--><g id="link_john_jane"><path codeLine="16" d="M181.38,68.01 C161.69,89.43 135.03,118.44 114.5,140.77 " fill="none" id="john-to-jane" style="stroke:#181818;stroke-width:1.0;"/><polygon fill="#181818" points="111,144.58,120.0418,140.6755,114.3896,140.9043,114.1608,135.2521,111,144.58" style="stroke:#181818;stroke-width:1.0;"/><text fill="#000000" font-family="sans-serif" font-size="13" lengthAdjust="spacing" textLength="67" x="154.5" y="111.0669">married to</text></g><!--link jane to peter--><g id="link_jane_peter"><path codeLine="17" d="M160.13,175.5 C189.98,175.5 224.2,175.5 254.45,175.5 " fill="none" id="jane-to-peter" style="stroke:#181818;stroke-width:1.0;"/><polygon fill="#181818" points="259.66,175.5,250.66,171.5,254.66,175.5,250.66,179.5,259.66,175.5" style="stroke:#181818;stroke-width:1.0;"/><text fill="#000000" font-family="sans-serif" font-size="13" lengthAdjust="spacing" textLength="63" x="178.5" y="168.5669">mother of</text></g><!--link john to peter--><g id="link_john_peter"><path codeLine="18" d="M236.06,68.01 C256.06,89.43 283.15,118.44 304,140.77 " fill="none" id="john-to-peter" style="stroke:#181818;stroke-width:1.0;"/><polygon fill="#181818" points="307.56,144.58,304.3239,135.278,304.1408,140.9319,298.4869,140.7487,307.56,144.58" style="stroke:#181818;stroke-width:1.0;"/><text fill="#000000" font-family="sans-serif" font-size="13" lengthAdjust="spacing" textLength="54" x="280.5" y="111.0669">father of</text></g><!--SRC=[NOwv3i8m38RtF8NLFHA7M91WOc92uWaCTPjKIenIImo8ToT7eQ6UyX_-OhuDT1Tepcmyd9WQm16695uAudXq18SgpoxsoTokr5if_XBG4roT5LCOIIuOSwEYR7OrvK92uNV88wj_ojoe8El4o6VhbfzU7yl_Ut0OWgKMX5LsTB2zaPWNT2omcFZWRbfVvXrE-GS0]--></g></svg>