<?xml version="1.0" encoding="us-ascii" standalone="no"?><svg xmlns="http://www.w3.org/2000/svg" xmlns:xlink="http://www.w3.org/1999/xlink" contentStyleType="text/css" height="170px" preserveAspectRatio="none" style="width:306px;height:170px;background:#FFFFFF;" version="1.1" viewBox="0 0 306 170" width="306px" zoomAndPan="magnify"><defs/><g><line style="stroke:#333333;stroke-width:0.5;" x1="10" x2="10" y1="10" y2="140.5938"/><line style="stroke:#333333;stroke-width:0.5;" x1="289" x2="289" y1="10" y2="140.5938"/><line style="stroke:#333333;stroke-width:0.5;stroke-dasharray:3.0,5.0;" x1="84" x2="84" y1="10" y2="140.5938"/><line style="stroke:#333333;stroke-width:0.5;stroke-dasharray:3.0,5.0;" x1="134" x2="134" y1="10" y2="140.5938"/><line style="stroke:#333333;stroke-width:0.5;stroke-dasharray:3.0,5.0;" x1="184" x2="184" y1="10" y2="140.5938"/><line style="stroke:#333333;stroke-width:0.5;stroke-dasharray:3.0,5.0;" x1="234" x2="234" y1="10" y2="140.5938"/><line style="stroke:#333333;stroke-width:0.5;stroke-dasharray:3.0,5.0;" x1="284" x2="284" y1="10" y2="140.5938"/><line style="stroke:#333333;stroke-width:0.5;" x1="10" x2="289" y1="10" y2="10"/><text fill="#333333" font-family="sans-serif" font-size="14" font-weight="bold" lengthAdjust="spacing" textLength="107" x="15" y="22.9951">Web Browser</text><line style="stroke:#333333;stroke-width:0.5;" x1="10" x2="123" y1="27.2969" y2="27.2969"/><line style="stroke:#333333;stroke-width:0.5;" x1="123" x2="133" y1="27.2969" y2="10"/><text fill="#333333" font-family="sans-serif" font-size="12" lengthAdjust="spacing" textLength="22" x="15" y="77.4512">Idle</text><text fill="#333333" font-family="sans-serif" font-size="12" lengthAdjust="spacing" textLength="69" x="15" y="57.4512">Processing</text><text fill="#333333" font-family="sans-serif" font-size="12" lengthAdjust="spacing" textLength="46" x="15" y="37.4512">Waiting</text><line style="stroke:#006400;stroke-width:2.0;" x1="84" x2="134" y1="72.2969" y2="72.2969"/><line style="stroke:#006400;stroke-width:2.0;" x1="134" x2="234" y1="52.2969" y2="52.2969"/><line style="stroke:#006400;stroke-width:2.0;" x1="234" x2="284" y1="32.2969" y2="32.2969"/><line style="stroke:#006400;stroke-width:2.0;" x1="134" x2="134" y1="52.2969" y2="72.2969"/><line style="stroke:#006400;stroke-width:2.0;" x1="234" x2="234" y1="32.2969" y2="52.2969"/><line style="stroke:#333333;stroke-width:0.5;" x1="10" x2="289" y1="84.2969" y2="84.2969"/><text fill="#333333" font-family="sans-serif" font-size="14" font-weight="bold" lengthAdjust="spacing" textLength="77" x="15" y="97.292">Web User</text><line style="stroke:#333333;stroke-width:0.5;" x1="10" x2="93" y1="101.5938" y2="101.5938"/><line style="stroke:#333333;stroke-width:0.5;" x1="93" x2="103" y1="101.5938" y2="84.2969"/><polygon fill="#E2E2F0" points="96,106.5938,122,106.5938,134,118.5938,122,130.5938,96,130.5938,84,118.5938" style="stroke:#006400;stroke-width:1.5;"/><polygon fill="#E2E2F0" points="146,106.5938,284,106.5938,284,130.5938,146,130.5938,134,118.5938" style="stroke:#E2E2F0;stroke-width:1.5;"/><path d="M284,106.5938 L146,106.5938 L134,118.5938 L146,130.5938 L284,130.5938 " fill="#E2E2F0" style="stroke:#006400;stroke-width:1.5;"/><text fill="#333333" font-family="sans-serif" font-size="12" font-weight="bold" lengthAdjust="spacing" textLength="26" x="96" y="122.748">Idle</text><text fill="#333333" font-family="sans-serif" font-size="12" font-weight="bold" lengthAdjust="spacing" textLength="55" x="146" y="122.748">Waiting</text><line style="stroke:#333333;stroke-width:2.0;" x1="84" x2="84" y1="140.5938" y2="145.5938"/><line style="stroke:#333333;stroke-width:2.0;" x1="134" x2="134" y1="140.5938" y2="145.5938"/><line style="stroke:#333333;stroke-width:2.0;" x1="184" x2="184" y1="140.5938" y2="145.5938"/><line style="stroke:#333333;stroke-width:2.0;" x1="234" x2="234" y1="140.5938" y2="145.5938"/><line style="stroke:#333333;stroke-width:2.0;" x1="284" x2="284" y1="140.5938" y2="145.5938"/><line style="stroke:#333333;stroke-width:2.0;" x1="84" x2="284" y1="140.5938" y2="140.5938"/><text fill="#333333" font-family="sans-serif" font-size="11" lengthAdjust="spacing" textLength="7" x="80.5" y="156.8042">0</text><text fill="#333333" font-family="sans-serif" font-size="11" lengthAdjust="spacing" textLength="21" x="123.5" y="156.8042">100</text><text fill="#333333" font-family="sans-serif" font-size="11" lengthAdjust="spacing" textLength="21" x="223.5" y="156.8042">300</text><line style="stroke:#00008B;stroke-width:1.5;" x1="134" x2="134" y1="118.5938" y2="72.2969"/><polygon fill="#00008B" points="136.7362,79.8144,131.2638,79.8144,134,72.2969" style="stroke:#00008B;stroke-width:1.5;"/><text fill="#00008B" font-family="Serif" font-size="14" lengthAdjust="spacing" textLength="32" x="134" y="92.8095">URL</text><!--SRC=[AyfFAYqkKL0AJqrIS2hABozEBL9II2nM27VYIixFIyuiJeN8XS8bGhcu70oumaCLCeiLF5DoKhd2dU1CBWT30x2ShXtG10KhXT0W7wZIyCJCaioyTAZgWAByvDJYOf00buCnI8yJaY80]--></g></svg>