<?xml version="1.0" encoding="us-ascii" standalone="no"?><svg xmlns="http://www.w3.org/2000/svg" xmlns:xlink="http://www.w3.org/1999/xlink" contentStyleType="text/css" height="298px" preserveAspectRatio="none" style="width:218px;height:298px;background:#FFFFFF;" version="1.1" viewBox="0 0 218 298" width="218px" zoomAndPan="magnify"><defs/><g><rect fill="#FFFFFF" height="108.5313" style="stroke:#181818;stroke-width:1.0;" width="10" x="13.5" y="91.2969"/><rect fill="#FFFFFF" height="87.3984" style="stroke:#181818;stroke-width:1.0;" width="10" x="96.5" y="112.4297"/><rect fill="#FFFFFF" height="29.1328" style="stroke:#181818;stroke-width:1.0;" width="10" x="178.5" y="141.5625"/><line style="stroke:#181818;stroke-width:0.5;stroke-dasharray:5.0,5.0;" x1="18" x2="18" y1="81.2969" y2="217.8281"/><line style="stroke:#181818;stroke-width:0.5;stroke-dasharray:5.0,5.0;" x1="101.5" x2="101.5" y1="81.2969" y2="217.8281"/><line style="stroke:#181818;stroke-width:0.5;stroke-dasharray:5.0,5.0;" x1="183.5" x2="183.5" y1="81.2969" y2="217.8281"/><text fill="#000000" font-family="sans-serif" font-size="14" lengthAdjust="spacing" textLength="9" x="11" y="77.9951">A</text><ellipse cx="18.5" cy="13.5" fill="#E2E2F0" rx="8" ry="8" style="stroke:#181818;stroke-width:0.5;"/><path d="M18.5,21.5 L18.5,48.5 M5.5,29.5 L31.5,29.5 M18.5,48.5 L5.5,63.5 M18.5,48.5 L31.5,63.5 " fill="none" style="stroke:#181818;stroke-width:0.5;"/><text fill="#000000" font-family="sans-serif" font-size="14" lengthAdjust="spacing" textLength="9" x="11" y="229.8232">A</text><ellipse cx="18.5" cy="241.625" fill="#E2E2F0" rx="8" ry="8" style="stroke:#181818;stroke-width:0.5;"/><path d="M18.5,249.625 L18.5,276.625 M5.5,257.625 L31.5,257.625 M18.5,276.625 L5.5,291.625 M18.5,276.625 L31.5,291.625 " fill="none" style="stroke:#181818;stroke-width:0.5;"/><rect fill="#E2E2F0" height="30.2969" rx="2.5" ry="2.5" style="stroke:#181818;stroke-width:0.5;" width="24" x="89.5" y="50"/><text fill="#000000" font-family="sans-serif" font-size="14" lengthAdjust="spacing" textLength="10" x="96.5" y="69.9951">B</text><rect fill="#E2E2F0" height="30.2969" rx="2.5" ry="2.5" style="stroke:#181818;stroke-width:0.5;" width="24" x="89.5" y="216.8281"/><text fill="#000000" font-family="sans-serif" font-size="14" lengthAdjust="spacing" textLength="10" x="96.5" y="236.8232">B</text><text fill="#000000" font-family="sans-serif" font-size="14" lengthAdjust="spacing" textLength="10" x="175.5" y="77.9951">C</text><path d="M165.5,29 C165.5,19 183.5,19 183.5,19 C183.5,19 201.5,19 201.5,29 L201.5,55 C201.5,65 183.5,65 183.5,65 C183.5,65 165.5,65 165.5,55 L165.5,29 " fill="#E2E2F0" style="stroke:#181818;stroke-width:1.5;"/><path d="M165.5,29 C165.5,39 183.5,39 183.5,39 C183.5,39 201.5,39 201.5,29 " fill="none" style="stroke:#181818;stroke-width:1.5;"/><text fill="#000000" font-family="sans-serif" font-size="14" lengthAdjust="spacing" textLength="10" x="175.5" y="229.8232">C</text><path d="M165.5,243.125 C165.5,233.125 183.5,233.125 183.5,233.125 C183.5,233.125 201.5,233.125 201.5,243.125 L201.5,269.125 C201.5,279.125 183.5,279.125 183.5,279.125 C183.5,279.125 165.5,279.125 165.5,269.125 L165.5,243.125 " fill="#E2E2F0" style="stroke:#181818;stroke-width:1.5;"/><path d="M165.5,243.125 C165.5,253.125 183.5,253.125 183.5,253.125 C183.5,253.125 201.5,253.125 201.5,243.125 " fill="none" style="stroke:#181818;stroke-width:1.5;"/><rect fill="#FFFFFF" height="108.5313" style="stroke:#181818;stroke-width:1.0;" width="10" x="13.5" y="91.2969"/><rect fill="#FFFFFF" height="87.3984" style="stroke:#181818;stroke-width:1.0;" width="10" x="96.5" y="112.4297"/><rect fill="#FFFFFF" height="29.1328" style="stroke:#181818;stroke-width:1.0;" width="10" x="178.5" y="141.5625"/><polygon fill="#181818" points="84.5,108.4297,94.5,112.4297,84.5,116.4297,88.5,112.4297" style="stroke:#181818;stroke-width:1.0;"/><line style="stroke:#181818;stroke-width:1.0;" x1="23.5" x2="90.5" y1="112.4297" y2="112.4297"/><text fill="#000000" font-family="sans-serif" font-size="13" font-weight="bold" lengthAdjust="spacing" textLength="9" x="30.5" y="107.3638">1</text><text fill="#000000" font-family="sans-serif" font-size="13" lengthAdjust="spacing" textLength="37" x="43.5" y="107.3638">click()</text><polygon fill="#181818" points="166.5,137.5625,176.5,141.5625,166.5,145.5625,170.5,141.5625" style="stroke:#181818;stroke-width:1.0;"/><line style="stroke:#181818;stroke-width:1.0;" x1="106.5" x2="172.5" y1="141.5625" y2="141.5625"/><text fill="#000000" font-family="sans-serif" font-size="13" font-weight="bold" lengthAdjust="spacing" textLength="9" x="113.5" y="136.4966">2</text><text fill="#000000" font-family="sans-serif" font-size="13" lengthAdjust="spacing" textLength="40" x="126.5" y="136.4966">save()</text><polygon fill="#181818" points="117.5,166.6953,107.5,170.6953,117.5,174.6953,113.5,170.6953" style="stroke:#181818;stroke-width:1.0;"/><line style="stroke:#181818;stroke-width:1.0;stroke-dasharray:2.0,2.0;" x1="111.5" x2="182.5" y1="170.6953" y2="170.6953"/><text fill="#000000" font-family="sans-serif" font-size="13" font-weight="bold" lengthAdjust="spacing" textLength="9" x="123.5" y="165.6294">3</text><text fill="#000000" font-family="sans-serif" font-size="13" lengthAdjust="spacing" textLength="18" x="136.5" y="165.6294">OK</text><polygon fill="#181818" points="29.5,195.8281,19.5,199.8281,29.5,203.8281,25.5,199.8281" style="stroke:#181818;stroke-width:1.0;"/><line style="stroke:#181818;stroke-width:1.0;stroke-dasharray:2.0,2.0;" x1="23.5" x2="100.5" y1="199.8281" y2="199.8281"/><text fill="#000000" font-family="sans-serif" font-size="13" font-weight="bold" lengthAdjust="spacing" textLength="9" x="35.5" y="194.7622">4</text><text fill="#000000" font-family="sans-serif" font-size="13" lengthAdjust="spacing" textLength="36" x="48.5" y="194.7622">result</text><!--SRC=[LSix4eCm38JXVa-XCYcuW8lCM2vJS0PXL7X2WB5bpi-hCUNEjxzKM-Rw7pG34ct9vB5AjXJJAhCHOnIJGOfIk1vf4zFZ14_TXzXHd5BylTuDClYquAZ8fWyA2DJTNV_5g0sSqI7UKTPI9skLqIwF7G00]--></g></svg>