<?xml version="1.0" encoding="us-ascii" standalone="no"?><svg xmlns="http://www.w3.org/2000/svg" xmlns:xlink="http://www.w3.org/1999/xlink" contentStyleType="text/css" height="252px" preserveAspectRatio="none" style="width:233px;height:252px;background:#FFFFFF;" version="1.1" viewBox="0 0 233 252" width="233px" zoomAndPan="magnify"><defs/><g><ellipse cx="39.5" cy="16" fill="#222222" rx="10" ry="10" style="stroke:none;stroke-width:1.0;"/><g id="State1"><rect fill="#F1F1F1" height="50" rx="12.5" ry="12.5" style="stroke:#181818;stroke-width:0.5;" width="65" x="7" y="86"/><line style="stroke:#181818;stroke-width:0.5;" x1="7" x2="72" y1="112.2969" y2="112.2969"/><text fill="#000000" font-family="sans-serif" font-size="14" lengthAdjust="spacing" textLength="45" x="17" y="103.9951">State1</text></g><g id="State2"><rect fill="#F1F1F1" height="50" rx="12.5" ry="12.5" style="stroke:#181818;stroke-width:0.5;" width="65" x="7" y="196"/><line style="stroke:#181818;stroke-width:0.5;" x1="7" x2="72" y1="222.2969" y2="222.2969"/><text fill="#000000" font-family="sans-serif" font-size="14" lengthAdjust="spacing" textLength="45" x="17" y="213.9951">State2</text></g><g id="State3"><rect fill="#F1F1F1" height="50" rx="12.5" ry="12.5" style="stroke:#181818;stroke-width:0.5;" width="65" x="107" y="196"/><line style="stroke:#181818;stroke-width:0.5;" x1="107" x2="172" y1="222.2969" y2="222.2969"/><text fill="#000000" font-family="sans-serif" font-size="14" lengthAdjust="spacing" textLength="45" x="117" y="213.9951">State3</text></g><ellipse cx="217.5" cy="221" fill="none" rx="10" ry="10" style="stroke:#222222;stroke-width:1.0;"/><ellipse cx="218" cy="221.5" fill="#222222" rx="6" ry="6" style="stroke:none;stroke-width:1.0;"/><!--link *start* to State1--><g id="link_*start*_State1"><path d="M39.5,26.26 C39.5,38.86 39.5,61.98 39.5,80.74 " fill="none" id="*start*-to-State1" style="stroke:#181818;stroke-width:1.0;"/><polygon fill="#181818" points="39.5,85.91,43.5,76.91,39.5,80.91,35.5,76.91,39.5,85.91" style="stroke:#181818;stroke-width:1.0;"/></g><!--link State1 to State2--><g id="link_State1_State2"><path d="M39.5,136.24 C39.5,152.36 39.5,173.62 39.5,190.69 " fill="none" id="State1-to-State2" style="stroke:#181818;stroke-width:1.0;"/><polygon fill="#181818" points="39.5,195.84,43.5,186.84,39.5,190.84,35.5,186.84,39.5,195.84" style="stroke:#181818;stroke-width:1.0;"/></g><!--link State2 to State3--><g id="link_State2_State3"><path d="M72.31,221 C82.15,221 91.98,221 101.81,221 " fill="none" id="State2-to-State3" style="stroke:#181818;stroke-width:1.0;"/><polygon fill="#181818" points="106.96,221,97.96,217,101.96,221,97.96,225,106.96,221" style="stroke:#181818;stroke-width:1.0;"/></g><!--link State3 to *end*--><g id="link_State3_*end*"><path d="M172.1,221 C182.07,221 192.04,221 202,221 " fill="none" id="State3-to-*end*" style="stroke:#181818;stroke-width:1.0;"/><polygon fill="#181818" points="207.21,221,198.21,217,202.21,221,198.21,225,207.21,221" style="stroke:#181818;stroke-width:1.0;"/></g><!--SRC=[YzQALT3LjLC8BaaiIJNaWb084IE8Y962Rb5cUaO9JDWO8coC48xMYWK0]--></g></svg>