<?xml version="1.0" encoding="us-ascii" standalone="no"?><svg xmlns="http://www.w3.org/2000/svg" xmlns:xlink="http://www.w3.org/1999/xlink" contentStyleType="text/css" height="321px" preserveAspectRatio="none" style="width:392px;height:321px;background:#FFFFFF;" version="1.1" viewBox="0 0 392 321" width="392px" zoomAndPan="magnify"><defs/><g><!--cluster Example System--><g id="cluster_Example System"><path d="M8.5,6 L137.5,6 A3.75,3.75 0 0 1 140,8.5 L147,28.2969 L199.5,28.2969 A2.5,2.5 0 0 1 202,30.7969 L202,311.5 A2.5,2.5 0 0 1 199.5,314 L8.5,314 A2.5,2.5 0 0 1 6,311.5 L6,8.5 A2.5,2.5 0 0 1 8.5,6 " fill="none" style="stroke:#000000;stroke-width:1.5;"/><line style="stroke:#000000;stroke-width:1.5;" x1="6" x2="147" y1="28.2969" y2="28.2969"/><text fill="#000000" font-family="sans-serif" font-size="14" font-weight="bold" lengthAdjust="spacing" textLength="128" x="10" y="20.9951">Example System</text></g><!--cluster External Service--><g id="cluster_External Service"><path d="M235.3527,120.9173 C238.1937,114.7007 241.9539,114.6148 246.0638,119.7165 C250.0691,113.9426 254.3928,114.0358 258.2848,119.8362 C261.6556,114.2052 265.0548,114.7498 269.1594,119.0313 C271.9152,113.0943 277.6783,112.835 281.3511,118.0267 C285.5789,112.2029 289.4851,110.9248 294.2832,117.4284 C297.8339,112.1168 302.6169,111.6992 305.5779,118.0017 C309.1023,113.5293 313.8516,112.7593 316.9873,118.4385 C320.6196,112.3502 324.175,112.3622 328.0539,118.2098 C332.9465,113.7853 336.8137,113.6327 339.4903,120.4617 C342.8505,114.8078 348.0008,113.776 351.4898,120.3352 C354.388,114.8731 359.0634,115.5324 362.3804,119.8696 C366.7752,114.291 371.6942,114.7452 374.957,121.0661 C382.509,123.2164 382.9431,129.507 377.1527,133.934 C384.6627,137.9818 383.9232,143.0038 378.045,147.9065 C385.4378,151.5288 384.8059,155.4703 379.481,160.5384 C385.6516,165.9133 384.8807,172.3168 376.7911,175.0481 C383.0474,180.2767 383.5887,184.9743 376.0516,189.497 C383.0699,193.2353 381.4541,199.7515 375.5578,203.0181 C372.6719,209.2335 367.586,209.0328 364.006,203.7132 C360.6723,210.1998 356.6263,209.5088 352.0235,205.1101 C349.1241,211.7175 345.1715,211.9076 340.624,206.7003 C336.7682,212.8972 332.8191,213.9788 327.5121,208.3029 C324.5249,213.4474 321.3043,213.5966 317.1701,209.6008 C313.6902,215.1732 309.9952,215.6061 305.5764,210.633 C301.3251,216.4599 295.1958,215.5332 292.4427,209.0364 C288.3673,214.1308 283.9912,213.4049 281.0106,207.8601 C276.2954,212.3852 272.0047,212.4433 269.3545,205.7201 C265.4249,210.3189 260.9351,209.6083 258.6046,204.0309 C254.9361,209.7435 249.4232,209.0617 246.6293,203.1313 C243.3861,208.947 238.0246,208.6258 235.3408,202.5981 C227.4592,199.8872 227.4366,195.1463 231.9446,189.2767 C223.8563,186.6014 222.1651,179.7439 228.8644,174.0728 C223.2332,171.6638 222.3753,165.8741 227.4917,162.2203 C221.9738,156.5568 223.2091,152.1669 229.8828,148.652 C224.4362,143.0354 224.7132,137.1639 232.9912,134.5787 C226.4839,128.8343 227.3768,124.1582 235.3527,120.9173 " fill="none" style="stroke:#181818;stroke-width:1.0;"/><text fill="#000000" font-family="sans-serif" font-size="14" font-weight="bold" lengthAdjust="spacing" textLength="128" x="240" y="137.9951">External Service</text></g><!--entity web--><g id="elem_web"><rect fill="#F1F1F1" height="46.2969" rx="2.5" ry="2.5" style="stroke:#181818;stroke-width:0.5;" width="119" x="55.5" y="41"/><rect fill="#F1F1F1" height="10" style="stroke:#181818;stroke-width:0.5;" width="15" x="154.5" y="46"/><rect fill="#F1F1F1" height="2" style="stroke:#181818;stroke-width:0.5;" width="4" x="152.5" y="48"/><rect fill="#F1F1F1" height="2" style="stroke:#181818;stroke-width:0.5;" width="4" x="152.5" y="52"/><text fill="#000000" font-family="sans-serif" font-size="14" lengthAdjust="spacing" textLength="79" x="70.5" y="73.9951">Web Server</text></g><!--entity app--><g id="elem_app"><rect fill="#F1F1F1" height="46.2969" rx="2.5" ry="2.5" style="stroke:#181818;stroke-width:0.5;" width="163" x="22.5" y="147"/><rect fill="#F1F1F1" height="10" style="stroke:#181818;stroke-width:0.5;" width="15" x="165.5" y="152"/><rect fill="#F1F1F1" height="2" style="stroke:#181818;stroke-width:0.5;" width="4" x="163.5" y="154"/><rect fill="#F1F1F1" height="2" style="stroke:#181818;stroke-width:0.5;" width="4" x="163.5" y="158"/><text fill="#000000" font-family="sans-serif" font-size="14" lengthAdjust="spacing" textLength="123" x="37.5" y="179.9951">Application Server</text></g><!--entity db--><g id="elem_db"><path d="M61,263 C61,253 104,253 104,253 C104,253 147,253 147,263 L147,288.2969 C147,298.2969 104,298.2969 104,298.2969 C104,298.2969 61,298.2969 61,288.2969 L61,263 " fill="#F1F1F1" style="stroke:#181818;stroke-width:0.5;"/><path d="M61,263 C61,273 104,273 104,273 C104,273 147,273 147,263 " fill="none" style="stroke:#181818;stroke-width:0.5;"/><text fill="#000000" font-family="sans-serif" font-size="14" lengthAdjust="spacing" textLength="66" x="71" y="289.9951">Database</text></g><!--entity api--><g id="elem_api"><rect fill="#F1F1F1" height="46.2969" rx="2.5" ry="2.5" style="stroke:#181818;stroke-width:0.5;" width="124" x="242" y="147"/><rect fill="#F1F1F1" height="10" style="stroke:#181818;stroke-width:0.5;" width="15" x="346" y="152"/><rect fill="#F1F1F1" height="2" style="stroke:#181818;stroke-width:0.5;" width="4" x="344" y="154"/><rect fill="#F1F1F1" height="2" style="stroke:#181818;stroke-width:0.5;" width="4" x="344" y="158"/><text fill="#000000" font-family="sans-serif" font-size="14" lengthAdjust="spacing" textLength="84" x="257" y="179.9951">API Gateway</text></g><!--link web to app--><g id="link_web_app"><path d="M112.67,87.06 C110.98,103.05 108.68,124.78 106.87,141.84 " fill="none" id="web-to-app" style="stroke:#181818;stroke-width:1.0;"/><polygon fill="#181818" points="106.33,146.98,111.2591,138.4533,106.8586,142.008,103.304,137.6075,106.33,146.98" style="stroke:#181818;stroke-width:1.0;"/></g><!--link app to db--><g id="link_app_db"><path d="M104,193.2 C104,209.14 104,230.69 104,247.6 " fill="none" id="app-to-db" style="stroke:#181818;stroke-width:1.0;"/><polygon fill="#181818" points="104,252.69,108,243.69,104,247.69,100,243.69,104,252.69" style="stroke:#181818;stroke-width:1.0;"/></g><!--link web to api--><g id="link_web_api"><path d="M167.59,87.09 C179.08,92.32 191.07,98.11 202,104 C224.51,116.13 248.69,131.43 267.85,144.14 " fill="none" id="web-to-api" style="stroke:#181818;stroke-width:1.0;"/><polygon fill="#181818" points="272.11,146.98,266.8403,138.6595,267.9497,144.2065,262.4027,145.3159,272.11,146.98" style="stroke:#181818;stroke-width:1.0;"/></g><!--SRC=[LOxD2W8n38JlVOhG-xw2iA28Ds4F7iH3sWOfzYTqe-iYlhlTNKMzX8HlCZECze9d0hsvO-H0q8szKDJmK00sHyw9ae0-a86EoesA1knX8FFFM-RWBOhFwLU7p5NdKD1WJx3-B1KveoggHj0qgxUmplcgxAcK3VdgfcP29M6OVRsbfTkntUzWYq83ZgSboazFNqElNW00]--></g></svg>