<?xml version="1.0" encoding="us-ascii" standalone="no"?><svg xmlns="http://www.w3.org/2000/svg" xmlns:xlink="http://www.w3.org/1999/xlink" contentStyleType="text/css" height="324px" preserveAspectRatio="none" style="width:516px;height:324px;background:#FFFFFF;" version="1.1" viewBox="0 0 516 324" width="516px" zoomAndPan="magnify"><defs/><g><!--cluster WebServer--><g id="cluster_WebServer"><polygon fill="none" points="193,199,203,189,499,189,499,297,489,307,193,307,193,199" style="stroke:#181818;stroke-width:1.0;"/><line style="stroke:#181818;stroke-width:1.0;" x1="489" x2="499" y1="199" y2="189"/><line style="stroke:#181818;stroke-width:1.0;" x1="193" x2="489" y1="199" y2="199"/><line style="stroke:#181818;stroke-width:1.0;" x1="489" x2="489" y1="199" y2="307"/><text fill="#000000" font-family="sans-serif" font-size="14" font-weight="bold" lengthAdjust="spacing" textLength="88" x="298" y="214.9951">WebServer</text></g><!--cluster ApplicationServer--><g id="cluster_ApplicationServer"><polygon fill="none" points="124,16,134,6,340,6,340,114,330,124,124,124,124,16" style="stroke:#181818;stroke-width:1.0;"/><line style="stroke:#181818;stroke-width:1.0;" x1="330" x2="340" y1="16" y2="6"/><line style="stroke:#181818;stroke-width:1.0;" x1="124" x2="330" y1="16" y2="16"/><line style="stroke:#181818;stroke-width:1.0;" x1="330" x2="330" y1="16" y2="124"/><text fill="#000000" font-family="sans-serif" font-size="14" font-weight="bold" lengthAdjust="spacing" textLength="140" x="158" y="31.9951">ApplicationServer</text></g><!--entity WebApp--><g id="elem_WebApp"><rect fill="#F1F1F1" height="46.2969" rx="2.5" ry="2.5" style="stroke:#181818;stroke-width:0.5;" width="98" x="377" y="237"/><rect fill="#F1F1F1" height="10" style="stroke:#181818;stroke-width:0.5;" width="15" x="455" y="242"/><rect fill="#F1F1F1" height="2" style="stroke:#181818;stroke-width:0.5;" width="4" x="453" y="244"/><rect fill="#F1F1F1" height="2" style="stroke:#181818;stroke-width:0.5;" width="4" x="453" y="248"/><text fill="#000000" font-family="sans-serif" font-size="14" lengthAdjust="spacing" textLength="58" x="392" y="269.9951">WebApp</text></g><!--entity Database--><g id="elem_Database"><rect fill="#F1F1F1" height="46.2969" rx="2.5" ry="2.5" style="stroke:#181818;stroke-width:0.5;" width="106" x="236" y="237"/><rect fill="#F1F1F1" height="10" style="stroke:#181818;stroke-width:0.5;" width="15" x="322" y="242"/><rect fill="#F1F1F1" height="2" style="stroke:#181818;stroke-width:0.5;" width="4" x="320" y="244"/><rect fill="#F1F1F1" height="2" style="stroke:#181818;stroke-width:0.5;" width="4" x="320" y="248"/><text fill="#000000" font-family="sans-serif" font-size="14" lengthAdjust="spacing" textLength="66" x="251" y="269.9951">Database</text></g><!--entity BusinessLogic--><g id="elem_BusinessLogic"><rect fill="#F1F1F1" height="46.2969" rx="2.5" ry="2.5" style="stroke:#181818;stroke-width:0.5;" width="140" x="173" y="54"/><rect fill="#F1F1F1" height="10" style="stroke:#181818;stroke-width:0.5;" width="15" x="293" y="59"/><rect fill="#F1F1F1" height="2" style="stroke:#181818;stroke-width:0.5;" width="4" x="291" y="61"/><rect fill="#F1F1F1" height="2" style="stroke:#181818;stroke-width:0.5;" width="4" x="291" y="65"/><text fill="#000000" font-family="sans-serif" font-size="14" lengthAdjust="spacing" textLength="100" x="188" y="86.9951">BusinessLogic</text></g><!--entity DatabaseServer--><g id="elem_DatabaseServer"><polygon fill="#F1F1F1" points="16,247,26,237,166,237,166,273.2969,156,283.2969,16,283.2969,16,247" style="stroke:#181818;stroke-width:0.5;"/><line style="stroke:#181818;stroke-width:0.5;" x1="156" x2="166" y1="247" y2="237"/><line style="stroke:#181818;stroke-width:0.5;" x1="16" x2="156" y1="247" y2="247"/><line style="stroke:#181818;stroke-width:0.5;" x1="156" x2="156" y1="247" y2="283.2969"/><text fill="#000000" font-family="sans-serif" font-size="14" lengthAdjust="spacing" textLength="110" x="31" y="269.9951">DatabaseServer</text></g><!--reverse link ApplicationServer to WebServer--><g id="link_ApplicationServer_WebServer"><path d="M149.5965,124.0009 C149.766,124.4249 149.9372,124.8486 150.1099,125.2718 C150.8008,126.9645 151.5167,128.649 152.2574,130.3147 C153.7389,133.6461 155.32,136.9025 157,140 C165.9,156.41 175.1,156.08 183,173 C187,181.57 190.1181,191.0331 192.547,200.4541 C192.6988,201.0429 192.848,201.6315 192.9944,202.2198 " fill="none" id="ApplicationServer-backto-WebServer" style="stroke:#181818;stroke-width:1.0;"/><polygon fill="#181818" points="149.5965,124.0009,149.2246,133.8427,151.4532,128.6434,156.6525,130.872,149.5965,124.0009" style="stroke:#181818;stroke-width:1.0;"/><text fill="#000000" font-family="sans-serif" font-size="13" lengthAdjust="spacing" textLength="32" x="179" y="161.0669">HTTP</text></g><!--link ApplicationServer to DatabaseServer--><g id="link_ApplicationServer_DatabaseServer"><path d="M123.9248,101.724 C123.8762,101.827 123.8275,101.9303 123.7788,102.0338 C117.54,115.2775 110.365,132.195 106,148 C98.28,175.94 94.46,208.97 92.62,231.7 " fill="none" id="ApplicationServer-to-DatabaseServer" style="stroke:#181818;stroke-width:1.0;"/><polygon fill="#181818" points="92.22,236.95,96.9023,228.2853,92.6057,231.9649,88.9261,227.6683,92.22,236.95" style="stroke:#181818;stroke-width:1.0;"/><text fill="#000000" font-family="sans-serif" font-size="13" lengthAdjust="spacing" textLength="31" x="107" y="161.0669">JDBC</text></g><!--SRC=[oyjFILK8JqqAJYqgIorIgEPIK4ZEpot8pqlDAm69EnOKe0Yv99Oa9YKMftBLSd7bWVG25UHa9YUMPERdOJN3gRGuCo-rkDWdFpqp6QuBPWnMBSXs89ocMrgWQuV5EYi5Zv2G02vC2TsK_F8ye1OqkwmKl5oSd040]--></g></svg>