<?xml version="1.0" encoding="us-ascii" standalone="no"?><svg xmlns="http://www.w3.org/2000/svg" xmlns:xlink="http://www.w3.org/1999/xlink" contentStyleType="text/css" height="254px" preserveAspectRatio="none" style="width:221px;height:254px;background:#FFFFFF;" version="1.1" viewBox="0 0 221 254" width="221px" zoomAndPan="magnify"><defs/><g><ellipse cx="111.75" cy="20" fill="#222222" rx="10" ry="10" style="stroke:#222222;stroke-width:1.0;"/><rect fill="#F1F1F1" height="33.9688" rx="12.5" ry="12.5" style="stroke:#181818;stroke-width:0.5;" width="89" x="67.25" y="50"/><text fill="#000000" font-family="sans-serif" font-size="12" lengthAdjust="spacing" textLength="69" x="77.25" y="71.1387">Login Page</text><polygon fill="#F1F1F1" points="82.75,103.9688,140.75,103.9688,152.75,115.9688,140.75,127.9688,82.75,127.9688,70.75,115.9688,82.75,103.9688" style="stroke:#181818;stroke-width:0.5;"/><text fill="#000000" font-family="sans-serif" font-size="11" lengthAdjust="spacing" textLength="58" x="82.75" y="119.7769">Valid User</text><text fill="#000000" font-family="sans-serif" font-size="11" lengthAdjust="spacing" textLength="20" x="50.75" y="113.3745">yes</text><text fill="#000000" font-family="sans-serif" font-size="11" lengthAdjust="spacing" textLength="14" x="152.75" y="113.3745">no</text><rect fill="#F1F1F1" height="33.9688" rx="12.5" ry="12.5" style="stroke:#181818;stroke-width:0.5;" width="92" x="11" y="137.9688"/><text fill="#000000" font-family="sans-serif" font-size="12" lengthAdjust="spacing" textLength="72" x="21" y="159.1074">Home Page</text><rect fill="#F1F1F1" height="33.9688" rx="12.5" ry="12.5" style="stroke:#181818;stroke-width:0.5;" width="87" x="123" y="137.9688"/><text fill="#000000" font-family="sans-serif" font-size="12" lengthAdjust="spacing" textLength="67" x="133" y="159.1074">Error Page</text><polygon fill="#F1F1F1" points="111.75,177.9375,123.75,189.9375,111.75,201.9375,99.75,189.9375,111.75,177.9375" style="stroke:#181818;stroke-width:0.5;"/><ellipse cx="111.75" cy="232.9375" fill="none" rx="11" ry="11" style="stroke:#222222;stroke-width:1.0;"/><ellipse cx="111.75" cy="232.9375" fill="#222222" rx="6" ry="6" style="stroke:#111111;stroke-width:1.0;"/><line style="stroke:#181818;stroke-width:1.0;" x1="111.75" x2="111.75" y1="30" y2="50"/><polygon fill="#181818" points="107.75,40,111.75,50,115.75,40,111.75,44" style="stroke:#181818;stroke-width:1.0;"/><line style="stroke:#181818;stroke-width:1.0;" x1="70.75" x2="57" y1="115.9688" y2="115.9688"/><line style="stroke:#181818;stroke-width:1.0;" x1="57" x2="57" y1="115.9688" y2="137.9688"/><polygon fill="#181818" points="53,127.9688,57,137.9688,61,127.9688,57,131.9688" style="stroke:#181818;stroke-width:1.0;"/><line style="stroke:#181818;stroke-width:1.0;" x1="152.75" x2="166.5" y1="115.9688" y2="115.9688"/><line style="stroke:#181818;stroke-width:1.0;" x1="166.5" x2="166.5" y1="115.9688" y2="137.9688"/><polygon fill="#181818" points="162.5,127.9688,166.5,137.9688,170.5,127.9688,166.5,131.9688" style="stroke:#181818;stroke-width:1.0;"/><line style="stroke:#181818;stroke-width:1.0;" x1="57" x2="57" y1="171.9375" y2="189.9375"/><line style="stroke:#181818;stroke-width:1.0;" x1="57" x2="99.75" y1="189.9375" y2="189.9375"/><polygon fill="#181818" points="89.75,185.9375,99.75,189.9375,89.75,193.9375,93.75,189.9375" style="stroke:#181818;stroke-width:1.0;"/><line style="stroke:#181818;stroke-width:1.0;" x1="166.5" x2="166.5" y1="171.9375" y2="189.9375"/><line style="stroke:#181818;stroke-width:1.0;" x1="166.5" x2="123.75" y1="189.9375" y2="189.9375"/><polygon fill="#181818" points="133.75,185.9375,123.75,189.9375,133.75,193.9375,129.75,189.9375" style="stroke:#181818;stroke-width:1.0;"/><line style="stroke:#181818;stroke-width:1.0;" x1="111.75" x2="111.75" y1="83.9688" y2="103.9688"/><polygon fill="#181818" points="107.75,93.9688,111.75,103.9688,115.75,93.9688,111.75,97.9688" style="stroke:#181818;stroke-width:1.0;"/><line style="stroke:#181818;stroke-width:1.0;" x1="111.75" x2="111.75" y1="201.9375" y2="221.9375"/><polygon fill="#181818" points="107.75,211.9375,111.75,221.9375,115.75,211.9375,111.75,215.9375" style="stroke:#181818;stroke-width:1.0;"/><!--SRC=[Aov9B2hXilB9Jy_CKmX8J4-rvifCKz08Iyp9J548BKujqbGeoKZDKz2eJ2tMv59GiFB8pqs5AapDAKvLqCZB1ukx5XNb5y4ayb8oqxYAI_8B0000]--></g></svg>